<svg width="16" height="16" viewBox="0 0 16 16" fill="none" xmlns="http://www.w3.org/2000/svg">
<path d="M7.99935 3.98288C10.526 3.98288 12.7793 5.40288 13.8793 7.64954C13.486 8.46288 12.9327 9.16288 12.2727 9.72954L13.2127 10.6695C14.1393 9.84955 14.8727 8.82288 15.3327 7.64954C14.1793 4.72288 11.3327 2.64954 7.99935 2.64954C7.15268 2.64954 6.33935 2.78288 5.57268 3.02954L6.67268 4.12954C7.10602 4.04288 7.54602 3.98288 7.99935 3.98288ZM7.28602 4.74288L8.66602 6.12288C9.04602 6.28954 9.35268 6.59621 9.51935 6.97621L10.8993 8.35621C10.9527 8.12954 10.9927 7.88954 10.9927 7.64288C10.9993 5.98954 9.65268 4.64954 7.99935 4.64954C7.75268 4.64954 7.51935 4.68288 7.28602 4.74288ZM1.33935 2.56288L3.12602 4.34954C2.03935 5.20288 1.17935 6.33621 0.666016 7.64954C1.81935 10.5762 4.66602 12.6495 7.99935 12.6495C9.01268 12.6495 9.98601 12.4562 10.8793 12.1029L13.1593 14.3829L14.0993 13.4429L2.27935 1.61621L1.33935 2.56288ZM6.33935 7.56288L8.07935 9.30288C8.05268 9.30954 8.02602 9.31621 7.99935 9.31621C7.07935 9.31621 6.33268 8.56954 6.33268 7.64954C6.33268 7.61621 6.33935 7.59621 6.33935 7.56288ZM4.07268 5.29621L5.23935 6.46288C5.08602 6.82954 4.99935 7.22954 4.99935 7.64954C4.99935 9.30288 6.34602 10.6495 7.99935 10.6495C8.41935 10.6495 8.81935 10.5629 9.17935 10.4095L9.83268 11.0629C9.24602 11.2229 8.63268 11.3162 7.99935 11.3162C5.47268 11.3162 3.21935 9.89621 2.11935 7.64954C2.58602 6.69621 3.26602 5.90954 4.07268 5.29621Z" fill="#606060"/>
</svg>
