<svg width="11" height="10" viewBox="0 0 11 10" fill="none" xmlns="http://www.w3.org/2000/svg">
<mask id="path-1-inside-1_8_2910" fill="white">
<path d="M10.75 5C10.75 7.76142 8.51142 10 5.75 10C2.98858 10 0.75 7.76142 0.75 5C0.75 2.23858 2.98858 0 5.75 0C8.51142 0 10.75 2.23858 10.75 5Z"/>
</mask>
<path d="M10.75 5C10.75 7.76142 8.51142 10 5.75 10C2.98858 10 0.75 7.76142 0.75 5C0.75 2.23858 2.98858 0 5.75 0C8.51142 0 10.75 2.23858 10.75 5Z" fill="#748C70"/>
<path d="M10.5 5C10.5 7.62335 8.37335 9.75 5.75 9.75V10.25C8.64949 10.25 11 7.89949 11 5H10.5ZM5.75 9.75C3.12665 9.75 1 7.62335 1 5H0.5C0.5 7.89949 2.8505 10.25 5.75 10.25V9.75ZM1 5C1 2.37665 3.12665 0.25 5.75 0.25V-0.25C2.8505 -0.25 0.5 2.1005 0.5 5H1ZM5.75 0.25C8.37335 0.25 10.5 2.37665 10.5 5H11C11 2.1005 8.64949 -0.25 5.75 -0.25V0.25Z" fill="white" mask="url(#path-1-inside-1_8_2910)"/>
</svg>
